nColumns=19
nRows=96
DataType=double
version=3
OpenSimVersion=4.1
endheader
time	ground_force_1_vx	ground_force_1_vy	ground_force_1_vz	ground_force_1_px	ground_force_1_py	ground_force_1_pz	ground_force_1_mx	ground_force_1_my	ground_force_1_mz	ground_force_2_vx	ground_force_2_vy	ground_force_2_vz	ground_force_2_px	ground_force_2_py	ground_force_2_pz	ground_force_2_mx	ground_force_2_my	ground_force_2_mz
0.166667	-3.01714	11.5703	0.801993	0.830321	0	-0.16347	-0	1.4795	-0	0	0	0	-0.000739016	0	0.000417057	0	0	0
0.175	-9.02216	28.2251	-1.10358	0.846461	0	-0.275456	-0	1.87544	-0	0	0	0	-0.000739016	0	0.000417057	0	0	0
0.183333	-21.4954	75.9899	-3.79258	0.847163	0	-0.329793	-0	1.81175	-0	0	0	0	-0.000739016	0	0.000417057	0	0	0
0.191667	-39.0043	186.799	-5.6014	0.852916	0	-0.351051	-0	1.15512	-0	0	0	0	-0.000739016	0	0.000417057	0	0	0
0.2	-58.5605	384.975	-3.14118	0.854861	0	-0.358738	0	-0.101464	0	0	0	0	-0.000739016	0	0.000417057	0	0	0
0.208333	-79.9392	643.237	6.35658	0.851697	0	-0.361145	0	-1.78575	0	0	0	0	-0.000739016	0	0.000417057	0	0	0
0.216667	-102.483	884.023	20.6602	0.845437	0	-0.361604	0	-3.55829	0	0	0	0	-0.000739016	0	0.000417057	0	0	0
0.225	-126.982	1057.57	31.8222	0.836327	0	-0.362018	0	-5.0089	0	0	0	0	-0.000739016	0	0.000417057	0	0	0
0.233333	-155.581	1180.48	33.2583	0.824559	0	-0.363397	0	-5.80118	0	0	0	0	-0.000739016	0	0.000417057	0	0	0
0.241667	-180.431	1294.43	27.0487	0.810905	0	-0.364771	0	-5.78066	0	0	0	0	-0.000739016	0	0.000417057	0	0	0
0.25	-190.488	1417.16	20.7155	0.795094	0	-0.364659	0	-4.98214	0	0	0	0	-0.000739016	0	0.000417057	0	0	0
0.258333	-180.739	1536.77	17.7256	0.777118	0	-0.363353	0	-3.55538	0	0	0	0	-0.000739016	0	0.000417057	0	0	0
0.266667	-150.669	1634.17	14.9497	0.757523	0	-0.362007	0	-1.68592	0	0	0	0	-0.000739016	0	0.000417057	0	0	0
0.275	-110.365	1696.56	8.68649	0.737549	0	-0.360985	-0	0.437308	-0	0	0	0	-0.000739016	0	0.000417057	0	0	0
0.283333	-72.4465	1719.72	-0.717135	0.718408	0	-0.359699	-0	2.61741	-0	0	0	0	-0.000739016	0	0.000417057	0	0	0
0.291667	-39.9125	1705.82	-10.6443	0.700272	0	-0.357797	-0	4.64264	-0	0	0	0	-0.000739016	0	0.000417057	0	0	0
0.3	-10.4531	1658.35	-19.4147	0.682474	0	-0.355658	-0	6.29474	-0	0	0	0	-0.000739016	0	0.000417057	0	0	0
0.308333	17.4461	1582.55	-26.4252	0.664504	0	-0.353683	-0	7.37209	-0	0	0	0	-0.000739016	0	0.000417057	0	0	0
0.316667	43.829	1486.33	-30.704	0.64646	0	-0.351998	-0	7.72447	-0	0	0	0	-0.000739016	0	0.000417057	0	0	0
0.325	69.8864	1377.89	-30.6072	0.628028	0	-0.350607	-0	7.29365	-0	0	0	0	-0.000739016	0	0.000417057	0	0	0
0.333333	95.7173	1261.91	-25.1182	0.609001	0	-0.349491	-0	6.14524	-0	0	0	0	-0.000739016	0	0.000417057	0	0	0
0.341667	118.607	1137.37	-15.2638	0.589652	0	-0.348693	-0	4.47141	-0	0	0	0	-0.000739016	0	0.000417057	0	0	0
0.35	135.376	1001.95	-3.90948	0.570022	0	-0.348331	-0	2.55379	-0	0	0	0	-0.000739016	0	0.000417057	0	0	0
0.358333	144.113	856.832	6.09759	0.550153	0	-0.348471	-0	0.696652	-0	0	0	0	-0.000739016	0	0.000417057	0	0	0
0.366667	144.399	707.055	13.4847	0.530222	0	-0.348746	0	-0.842751	0	0	0	0	-0.000739016	0	0.000417057	0	0	0
0.375	136.43	559.347	18.2339	0.51071	0	-0.348366	0	-1.90213	0	0	0	0	-0.000739016	0	0.000417057	0	0	0
0.383333	121.875	420.703	20.2732	0.492449	0	-0.346601	0	-2.43228	0	0	0	0	-0.000739016	0	0.000417057	0	0	0
0.391667	103.334	297.443	19.2229	0.475949	0	-0.343104	0	-2.49078	0	0	0	0	-0.000739016	0	0.000417057	0	0	0
0.4	83.1626	195.593	15.4628	0.46106	0	-0.337279	0	-2.21725	0	0	0	0	-0.000739016	0	0.000417057	0	0	0
0.408333	63.1835	119.486	10.6907	0.4468	0	-0.326836	0	-1.7925	0	0	0	0	-0.000739016	0	0.000417057	0	0	0
0.416667	43.8755	68.4946	6.84266	0.435883	0	-0.307365	0	-1.38842	0	0	0	0	-0.000739016	0	0.000417057	0	0	0
0.425	26.618	37.3567	4.68509	0.445005	0	-0.275278	0	-1.12381	0	0	0	0	-0.000739016	0	0.000417057	0	0	0
0.433333	13.6622	19.5823	3.78909	0.509555	0	-0.228732	0	-1.04224	0	0	0	0	-0.000739016	0	0.000417057	0	0	0
0.441667	5.7002	10.3073	3.47383	0.679728	0	-0.152249	0	-1.1162	0	0	0	0	-0.000739016	0	0.000417057	0	0	0
0.45	0	0	0	-0.000739016	0	0.000417057	0	0	0	0	0	0	-0.000739016	0	0.000417057	0	0	0
0.458333	0	0	0	-0.000739016	0	0.000417057	0	0	0	0	0	0	-0.000739016	0	0.000417057	0	0	0
0.466667	0	0	0	-0.000739016	0	0.000417057	0	0	0	0	0	0	-0.000739016	0	0.000417057	0	0	0
0.475	0	0	0	-0.000739016	0	0.000417057	0	0	0	0	0	0	-0.000739016	0	0.000417057	0	0	0
0.483333	0	0	0	-0.000739016	0	0.000417057	0	0	0	0	0	0	-0.000739016	0	0.000417057	0	0	0
0.491667	0	0	0	-0.000739016	0	0.000417057	0	0	0	0	0	0	-0.000739016	0	0.000417057	0	0	0
0.5	0	0	0	-0.000739016	0	0.000417057	0	0	0	0	0	0	-0.000739016	0	0.000417057	0	0	0
0.508333	0	0	0	-0.000739016	0	0.000417057	0	0	0	-5.21672	14.4002	1.17858	0.738497	0	-0.293916	0	-0.28444	0
0.516667	0	0	0	-0.000739016	0	0.000417057	0	0	0	-17.7359	40.5091	0.306432	0.799469	0	-0.375875	0	-0.247742	0
0.525	0	0	0	-0.000739016	0	0.000417057	0	0	0	-38.7503	104.834	0.22813	0.831231	0	-0.41032	0	-0.423985	0
0.533333	0	0	0	-0.000739016	0	0.000417057	0	0	0	-62.9471	234.237	2.36035	0.848641	0	-0.42017	0	-0.773555	0
0.541667	0	0	0	-0.000739016	0	0.000417057	0	0	0	-80.017	433.558	7.17881	0.854103	0	-0.41945	0	-1.19286	0
0.55	0	0	0	-0.000739016	0	0.000417057	0	0	0	-85.5617	656.465	12.4925	0.850224	0	-0.415973	0	-1.55707	0
0.558333	0	0	0	-0.000739016	0	0.000417057	0	0	0	-86.5423	839.836	14.3252	0.841143	0	-0.414564	0	-1.78642	0
0.566667	0	0	0	-0.000739016	0	0.000417057	0	0	0	-99.1436	971.296	11.7396	0.830129	0	-0.417043	0	-1.89776	0
0.575	0	0	0	-0.000739016	0	0.000417057	0	0	0	-131.557	1081.52	9.59025	0.819192	0	-0.421013	0	-1.99779	0
0.583333	0	0	0	-0.000739016	0	0.000417057	0	0	0	-164.462	1199.76	13.2926	0.807003	0	-0.422713	0	-2.21568	0
0.591667	0	0	0	-0.000739016	0	0.000417057	0	0	0	-173.503	1328.48	22.1359	0.790482	0	-0.422279	0	-2.62798	0
0.6	0	0	0	-0.000739016	0	0.000417057	0	0	0	-154.802	1449.64	30.8776	0.769991	0	-0.422118	0	-3.23326	0
0.608333	0	0	0	-0.000739016	0	0.000417057	0	0	0	-120.204	1547.42	36.553	0.748423	0	-0.42295	0	-3.9781	0
0.616667	0	0	0	-0.000739016	0	0.000417057	0	0	0	-83.6922	1613.4	40.5389	0.727643	0	-0.424036	0	-4.79125	0
0.625	0	0	0	-0.000739016	0	0.000417057	0	0	0	-49.8331	1642.62	44.7413	0.707877	0	-0.424847	0	-5.59412	0
0.633333	0	0	0	-0.000739016	0	0.000417057	0	0	0	-19.1163	1632.74	49.0516	0.689274	0	-0.425663	0	-6.29432	0
0.641667	0	0	0	-0.000739016	0	0.000417057	0	0	0	7.63288	1586.84	52.494	0.67166	0	-0.426815	0	-6.78375	0
0.65	0	0	0	-0.000739016	0	0.000417057	0	0	0	33.1386	1514.04	54.2668	0.654267	0	-0.428056	0	-6.95221	0
0.658333	0	0	0	-0.000739016	0	0.000417057	0	0	0	60.0114	1422.33	53.5325	0.63635	0	-0.429064	0	-6.71502	0
0.666667	0	0	0	-0.000739016	0	0.000417057	0	0	0	87.8739	1315.37	49.5964	0.617499	0	-0.429667	0	-6.04465	0
0.675	0	0	0	-0.000739016	0	0.000417057	0	0	0	114.863	1196.27	42.4615	0.59797	0	-0.429663	0	-4.99229	0
0.683333	0	0	0	-0.000739016	0	0.000417057	0	0	0	138.129	1068.51	32.961	0.578384	0	-0.428968	0	-3.68774	0
0.691667	0	0	0	-0.000739016	0	0.000417057	0	0	0	154.327	934.095	22.3712	0.559137	0	-0.42776	0	-2.31503	0
0.7	0	0	0	-0.000739016	0	0.000417057	0	0	0	161.675	795.16	11.9463	0.5401	0	-0.426362	0	-1.07219	0
0.708333	0	0	0	-0.000739016	0	0.000417057	0	0	0	161.996	657.59	2.71886	0.52142	0	-0.424576	0	-0.128462	0
0.716667	0	0	0	-0.000739016	0	0.000417057	0	0	0	156.167	526.908	-4.65942	0.504163	0	-0.421972	-0	0.408187	-0
0.725	0	0	0	-0.000739016	0	0.000417057	0	0	0	144.376	406.225	-10.0836	0.489519	0	-0.418615	-0	0.505967	-0
0.733333	0	0	0	-0.000739016	0	0.000417057	0	0	0	127.343	299.031	-13.7	0.477453	0	-0.415038	-0	0.20597	-0
0.741667	0	0	0	-0.000739016	0	0.000417057	0	0	0	106.573	208.764	-15.3303	0.465351	0	-0.411344	0	-0.393519	0
0.75	0	0	0	-0.000739016	0	0.000417057	0	0	0	83.9669	137.358	-14.6104	0.450684	0	-0.405247	0	-1.15768	0
0.758333	0	0	0	-0.000739016	0	0.000417057	0	0	0	60.3754	84.7098	-11.8592	0.43538	0	-0.392504	0	-1.93794	0
0.766667	0	0	0	-0.000739016	0	0.000417057	0	0	0	38.3854	49.3237	-8.27726	0.431756	0	-0.366629	0	-2.59794	0
0.775	0	0	0	-0.000739016	0	0.000417057	0	0	0	21.4659	27.884	-4.99578	0.462018	0	-0.316754	0	-3.03981	0
0.783333	0	0	0	-0.000739016	0	0.000417057	0	0	0	10.7023	16.0483	-2.41244	0.525092	0	-0.231307	0	-3.22156	0
0.791667	0	0	0	-0.000739016	0	0.000417057	0	0	0	5.2295	10.3372	-0.541215	0.568684	0	-0.130088	0	-3.15743	0
0.8	0	0	0	-0.000739016	0	0.000417057	0	0	0	0	0	0	-0.000739016	0	0.000417057	0	0	0
0.808333	0	0	0	-0.000739016	0	0.000417057	0	0	0	0	0	0	-0.000739016	0	0.000417057	0	0	0
0.816667	0	0	0	-0.000739016	0	0.000417057	0	0	0	0	0	0	-0.000739016	0	0.000417057	0	0	0
0.825	0	0	0	-0.000739016	0	0.000417057	0	0	0	0	0	0	-0.000739016	0	0.000417057	0	0	0
0.833333	0	0	0	-0.000739016	0	0.000417057	0	0	0	0	0	0	-0.000739016	0	0.000417057	0	0	0
0.841667	-3.39831	11.2724	-0.672112	0.770905	0	-0.0808589	0	-0.659837	0	0	0	0	-0.000739016	0	0.000417057	0	0	0
0.85	-10.1276	26.4621	-4.02245	0.812247	0	-0.219019	0	-0.265621	0	0	0	0	-0.000739016	0	0.000417057	0	0	0
0.858333	-24.2952	73.4495	-9.28251	0.837941	0	-0.275529	0	-0.004361	0	0	0	0	-0.000739016	0	0.000417057	0	0	0
0.866667	-45.8912	184.096	-15.6909	0.848909	0	-0.294759	-0	0.046133	-0	0	0	0	-0.000739016	0	0.000417057	0	0	0
0.875	-69.0067	379.856	-20.8953	0.849208	0	-0.302159	0	-0.167737	0	0	0	0	-0.000739016	0	0.000417057	0	0	0
0.883333	-84.4479	628.78	-22.4451	0.842126	0	-0.305036	0	-0.636411	0	0	0	0	-0.000739016	0	0.000417057	0	0	0
0.891667	-89.1852	857.034	-20.8367	0.831199	0	-0.305924	0	-1.26885	0	0	0	0	-0.000739016	0	0.000417057	0	0	0
0.9	-96.5186	1026.12	-20.067	0.819057	0	-0.306136	0	-1.91504	0	0	0	0	-0.000739016	0	0.000417057	0	0	0
0.908333	-119.075	1153.47	-23.3908	0.807388	0	-0.306519	0	-2.41994	0	0	0	0	-0.000739016	0	0.000417057	0	0	0
0.916667	-145.965	1272	-29.3637	0.795288	0	-0.306903	0	-2.67108	0	0	0	0	-0.000739016	0	0.000417057	0	0	0
0.925	-157.874	1394.4	-34.1796	0.779738	0	-0.306717	0	-2.60949	0	0	0	0	-0.000739016	0	0.000417057	0	0	0
0.933333	-146.021	1510.75	-36.8303	0.760328	0	-0.306078	0	-2.21394	0	0	0	0	-0.000739016	0	0.000417057	0	0	0
0.941667	-114.107	1605.28	-39.5655	0.739221	0	-0.305346	0	-1.49036	0	0	0	0	-0.000739016	0	0.000417057	0	0	0
0.95	-74.7232	1665.72	-44.2579	0.718675	0	-0.304485	0	-0.480592	0	0	0	0	-0.000739016	0	0.000417057	0	0	0
0.958333	-37.7908	1685.68	-50.4473	0.699563	0	-0.303173	-0	0.724659	-0	0	0	0	-0.000739016	0	0.000417057	0	0	0
